<svg xmlns="http://www.w3.org/2000/svg" width="105.11711mm" height="164.34389mm" viewBox="0 0 105.11426 164.344" >

  <path
    fill="#000000ff"
    d="M 55.196099,0.00261755 C 40.817923,0.12703655 24.785408,4.8710028 9.8655372,16.261057 -1.5896168,38.881352 -1.1875558,95.634722 1.7611221,128.27954 43.29503,120.99653 30.238109,123.45013 45.625628,120.43919 l 0.996838,10.39058 -15.86053,33.51424 c 0,0 54.083613,-29.35547 67.61809,-37.91242 -8.153227,-2.36825 -10.733657,-8.32786 -11.176577,-13.98571 5.53719,-1.056 10.00425,-1.91179 16.967441,-3.23443 0.64885,-15.649688 1.32922,-32.350008 0.68213,-48.141238 H 7.1628591 c 2.2122217,-2.76694 4.5165489,-6.26561 4.8741209,-10.83707 0.330672,-4.2275 -0.147314,-6.218 -0.280603,-8.66304 H 103.20351 C 102.39212,35.699342 101.27477,30.108159 99.762376,24.923577 95.668269,10.88889 78.108849,0.26345755 56.582069,0.00468455 c -0.46028,-0.0055 -0.92215,-0.0061 -1.38597,-0.0021 z" /><path
       />
  
  <path
    fill="#ffffffff"
    d="m 27.392115,19.222117 c -6.312747,0.813189 0.02592,-0.03782 -6.38979,0.763777 -4.884408,6.678511 -8.697094,13.673386 -9.165332,18.238678 -0.134139,1.30788 -0.135011,2.36292 -0.08165,3.34553 H 43.968881 C 37.297874,36.116872 30.441465,28.60516 27.392115,19.222117 Z M 7.1628591,61.070212 c -1.361182,1.70249 -2.687528,3.12883 -3.504179,4.35477 -2.14389,3.21837 4.8954267,4.91182 5.7722577,6.47712 0.8736402,1.44967 0.204707,5.08132 -0.405143,6.23166 -0.551036,1.03939 1.5663122,3.47576 1.5663122,3.47576 0,0 -0.484587,1.5243 -0.08682,2.97036 0.436066,1.58528 1.647939,1.82761 1.882056,3.70055 0.167222,1.45568 -0.558635,3.71949 -0.341065,5.47925 0.247989,2.00578 1.90288,4.20848 4.241085,4.88601 5.128236,1.485988 14.558309,0.2764 22.132499,-3.07475 7.574179,-3.35114 15.634507,-9.27488 17.823207,-17.90175 1.13157,-4.46021 2.17517,-11.14894 2.92488,-16.59898 z" /><path
       />

  <path
    fill="#ab0022"
    d="m 11.755344,41.570102 c 0.133289,2.44504 0.612308,4.43553 0.281636,8.66304 -0.357573,4.57146 -2.6618972,8.07013 -4.8741209,10.83707 H 104.85302 c -0.27514,-6.71443 -0.78794,-13.26619 -1.64951,-19.50011 z"
       />
</svg>