<svg xmlns="http://www.w3.org/2000/svg" width="clamp(48px, 8vw, 320px)" height="auto" viewBox="0 0 210 297">
  <path
    fill="##09090a"
    d="M 32.729584,30.132634 C 7.230033,92.159211 10.977424,156.59398 10.977424,222.0679 l 82.532448,-22.1145 5.332386,39.74393 -27.86674,56.44216 127.823312,-71.95461 c -19.22522,-8.54062 -27.55771,-14.46032 -30.86213,-44.17409 l 27.85892,-7.46478 C 198.16951,124.96269 196.40432,54.878646 182.42669,34.913472 168.44906,14.948298 150.92369,3.7722284 115.30805,1.4422314 82.380057,1.7820866 57.259181,9.2103277 32.729584,30.132634 Z"
    />
  
  <path
    fill="#ffffff"
    d="m 36.132628,175.26322 c -5.741853,-8.13264 -1.588446,-14.05475 -2.94019,-17.49338 -1.351744,-3.43863 -5.598677,-5.35454 -4.973706,-8.34767 0.624971,-2.99313 1.392255,-3.42501 1.392255,-3.42501 0,0 -5.128357,-4.20572 -3.676019,-7.07199 1.452337,-2.86626 2.74262,-9.10482 1.041484,-10.41964 -1.701136,-1.31481 -10.510762,-4.78466 -9.445189,-9.4201 1.065572,-4.63545 4.96741,-5.88597 7.936667,-11.42781 2.969256,-5.54184 8.849465,-16.26519 7.613302,-22.394525 C 31.845069,79.13376 32.018289,76.186588 32.131599,70.639549 32.244908,65.09251 33.843348,60.727948 36.471812,54.831333 39.100276,48.934718 48.696418,36.120202 48.696418,36.120202 L 59.673619,34.62331 c 0,0 2.503863,9.75289 11.476158,21.704918 8.972295,11.952028 46.781503,45.297152 46.781503,45.297152 l -6.27145,35.75167 c -11.24658,39.23768 -69.785348,46.01881 -75.527202,37.88617 z"
    />
  
  <path
    fill="#ac1717"
    d="M 24.761552,108.559 195.58742,98.496362 C 194.74007,86.780268 194.13854,79.887329 192.64633,68.988403 L 32.075796,78.308268 c 0,0 0.287306,4.105051 0.893086,7.878739 0.60578,3.773688 -4.151509,15.057343 -8.207326,22.371993 z"
    />
</svg>